<?xml version="1.0" encoding="UTF-8" standalone="no"?>
<!-- Created with Inkscape (http://www.inkscape.org/) -->

<svg
   width="43.705757mm"
   height="58.383926mm"
   viewBox="0 0 43.705757 58.383926"
   version="1.1"
   id="svg930"
   inkscape:version="1.2.1 (9c6d41e410, 2022-07-14)"
   sodipodi:docname="pages_vertical.svg"
   xmlns:inkscape="http://www.inkscape.org/namespaces/inkscape"
   xmlns:sodipodi="http://sodipodi.sourceforge.net/DTD/sodipodi-0.dtd"
   xmlns="http://www.w3.org/2000/svg"
   xmlns:svg="http://www.w3.org/2000/svg">
  <sodipodi:namedview
     id="namedview932"
     pagecolor="#ffffff"
     bordercolor="#000000"
     borderopacity="0.25"
     inkscape:showpageshadow="2"
     inkscape:pageopacity="0.0"
     inkscape:pagecheckerboard="0"
     inkscape:deskcolor="#d1d1d1"
     inkscape:document-units="mm"
     showgrid="false"
     inkscape:zoom="0.35355339"
     inkscape:cx="608.11183"
     inkscape:cy="749.53319"
     inkscape:window-width="1920"
     inkscape:window-height="1009"
     inkscape:window-x="-8"
     inkscape:window-y="-8"
     inkscape:window-maximized="1"
     inkscape:current-layer="layer3"
     showguides="false">
    <sodipodi:guide
       position="-6.0505321,231.22365"
       orientation="-1,0"
       id="guide4764"
       inkscape:locked="false"
       inkscape:label=""
       inkscape:color="rgb(119,118,123)" />
    <sodipodi:guide
       position="-111.05053,87.723655"
       orientation="0,1"
       id="guide4766"
       inkscape:locked="false"
       inkscape:label=""
       inkscape:color="rgb(119,118,123)" />
    <sodipodi:guide
       position="138.94946,231.22365"
       orientation="-1,0"
       id="guide4912"
       inkscape:locked="false"
       inkscape:label=""
       inkscape:color="rgb(0,134,229)" />
    <sodipodi:guide
       position="-111.05053,231.22365"
       orientation="0,1"
       id="guide4914"
       inkscape:locked="false"
       inkscape:label=""
       inkscape:color="rgb(0,134,229)" />
    <sodipodi:guide
       position="243.94946,231.22365"
       orientation="-1,0"
       id="guide4971"
       inkscape:locked="false"
       inkscape:label=""
       inkscape:color="rgb(119,118,123)" />
    <sodipodi:guide
       position="-111.05053,231.22365"
       orientation="0,1"
       id="guide4973"
       inkscape:locked="false"
       inkscape:label=""
       inkscape:color="rgb(0,134,229)" />
    <sodipodi:guide
       position="-111.05053,231.22365"
       orientation="-1,0"
       id="guide4975"
       inkscape:locked="false"
       inkscape:label=""
       inkscape:color="rgb(0,134,229)" />
    <sodipodi:guide
       position="-111.05053,-65.776339"
       orientation="0,1"
       id="guide4977"
       inkscape:locked="false"
       inkscape:label=""
       inkscape:color="rgb(0,134,229)" />
    <sodipodi:guide
       position="98.949464,231.22365"
       orientation="-1,0"
       id="guide4979"
       inkscape:locked="false"
       inkscape:label=""
       inkscape:color="rgb(0,134,229)" />
    <sodipodi:guide
       position="348.94945,231.22365"
       orientation="-1,0"
       id="guide4981"
       inkscape:locked="false"
       inkscape:label=""
       inkscape:color="rgb(0,134,229)" />
    <sodipodi:guide
       position="68.199465,231.22365"
       orientation="-1,0"
       id="guide4983"
       inkscape:locked="false"
       inkscape:label=""
       inkscape:color="rgb(119,118,123)" />
    <sodipodi:guide
       position="-43.175531,231.22365"
       orientation="-1,0"
       id="guide4985"
       inkscape:locked="false"
       inkscape:label=""
       inkscape:color="rgb(0,134,229)" />
    <sodipodi:guide
       position="169.69946,231.22365"
       orientation="-1,0"
       id="guide4987"
       inkscape:locked="false"
       inkscape:label=""
       inkscape:color="rgb(119,118,123)" />
    <sodipodi:guide
       position="318.19946,231.22365"
       orientation="-1,0"
       id="guide4989"
       inkscape:locked="false"
       inkscape:label=""
       inkscape:color="rgb(119,118,123)" />
    <sodipodi:guide
       position="-111.05053,-27.276341"
       orientation="0,1"
       id="guide4991"
       inkscape:locked="false"
       inkscape:label=""
       inkscape:color="rgb(119,118,123)" />
    <sodipodi:guide
       position="-111.05053,192.72365"
       orientation="0,1"
       id="guide4993"
       inkscape:locked="false"
       inkscape:label=""
       inkscape:color="rgb(119,118,123)" />
    <sodipodi:guide
       position="-111.05053,77.723655"
       orientation="0,1"
       id="guide1602"
       inkscape:locked="false"
       inkscape:label=""
       inkscape:color="rgb(119,118,123)" />
    <sodipodi:guide
       position="-80.300529,231.22365"
       orientation="-1,0"
       id="guide4199"
       inkscape:locked="false"
       inkscape:label=""
       inkscape:color="rgb(119,118,123)" />
    <sodipodi:guide
       position="31.074466,231.22365"
       orientation="-1,0"
       id="guide4203"
       inkscape:locked="false"
       inkscape:label=""
       inkscape:color="rgb(0,134,229)" />
    <sodipodi:guide
       position="281.07446,231.22365"
       orientation="-1,0"
       id="guide4205"
       inkscape:locked="false"
       inkscape:label=""
       inkscape:color="rgb(0,134,229)" />
    <sodipodi:guide
       position="-111.05053,140.22365"
       orientation="0,1"
       id="guide6391"
       inkscape:locked="false"
       inkscape:label=""
       inkscape:color="rgb(0,134,229)" />
    <sodipodi:guide
       position="-111.05053,25.223657"
       orientation="0,1"
       id="guide8573"
       inkscape:locked="false"
       inkscape:label=""
       inkscape:color="rgb(0,134,229)" />
    <sodipodi:guide
       position="206.82446,231.22365"
       orientation="-1,0"
       id="guide8575"
       inkscape:locked="false"
       inkscape:label=""
       inkscape:color="rgb(0,134,229)" />
  </sodipodi:namedview>
  <defs
     id="defs927" />
  <g
     inkscape:groupmode="layer"
     id="layer2"
     inkscape:label=" page 1"
     style="display:inline"
     transform="translate(-111.05053,-172.83973)">
    <g
       id="g11702"
       transform="matrix(0.89560879,0,0,0.89560879,82.7962,107.58704)"
       style="display:inline"
       inkscape:label="circle R">
      <g
         id="g11688"
         inkscape:label="fox"
         style="display:inline;fill:#fe7743;fill-opacity:1;stroke-width:0.2;stroke-dasharray:none"
         inkscape:export-filename="circle.png"
         inkscape:export-xdpi="750.52924"
         inkscape:export-ydpi="750.52924">
        <g
           id="g11668"
           inkscape:label="leg1"
           style="display:inline;fill:#fe7743;fill-opacity:1;stroke-width:0.264583;stroke-dasharray:none">
          <g
             id="g11664"
             inkscape:label="tail"
             style="display:inline;fill:#fe7743;fill-opacity:1;stroke-width:0.264583;stroke-dasharray:none">
            <path
               style="fill:#fe7743;fill-opacity:1;stroke:#000000;stroke-width:0.264583;stroke-linecap:round;stroke-linejoin:round;stroke-dasharray:none"
               d="m 36.49804,99.21645 c -1.119571,1.41066 -1.70175,2.30632 -1.724141,2.8661 -0.02238,0.55979 0.671742,0.24631 0.02238,1.16436 -0.649351,0.91805 -0.873265,0.98522 -1.052398,1.41066 -0.179131,0.42544 -0.223915,1.14196 -0.313479,1.41066 -0.08957,0.2687 -2.082403,2.93328 -1.701749,3.09002 0.380653,0.15674 1.052398,0 0.895657,0.40304 -0.15674,0.40305 -0.671743,1.38827 -0.62696,1.70175 0.04478,0.31348 0.223914,0.71653 0.223914,0.89566 0,0.17913 -0.335872,1.2987 0.358262,1.63457 0.694135,0.33588 0.291089,0.49262 0.291089,1.45545 0,0.96283 0.111959,1.79131 0.29109,2.68697 0.179131,0.89566 -0.04478,1.00761 -0.02238,1.81371 0.02238,0.80609 0,1.52261 0.179131,1.2987 0.179133,-0.22392 0.985224,-1.2987 0.985224,-1.03001 0,0.2687 0.313481,3.24676 0.537395,3.31393 0.223914,0.0672 0.358261,-0.13434 0.582176,0.82849 0.223914,0.96283 0.291089,-0.0896 0.559787,0.69413 0.268697,0.7837 0.828481,2.86611 1.074787,2.3735 0.246306,-0.49262 0.582179,0.60456 0.694135,1.23152 0.111958,0.62696 0.626962,0.49262 0.738917,0.40305 0.111959,-0.0896 -0.08956,1.18675 -0.02238,1.81371 0.06717,0.62696 0.201525,1.07479 0.313481,1.07479 0.111958,0 0.425436,-0.94044 0.604567,-0.58218 0.179134,0.35826 0.380656,1.90327 0.738918,1.97044 0.358264,0.0672 -0.134347,-1.03 0.873268,0.22392 1.007613,1.25392 0.850873,1.34348 1.321094,1.85849 0.47022,0.515 0.694134,0.76131 2.104794,1.32109 1.410661,0.55979 1.880881,0.64935 2.530232,1.09718 0.649354,0.44783 0.895657,0.31348 1.097182,-0.15674 0.201522,-0.47022 0.134347,-0.44783 0.918049,-0.62696 0.783698,-0.17913 1.186746,-0.89565 1.433052,-1.58979 0.246306,-0.69413 -0.156742,-1.27631 0.425436,-1.72414 0.582176,-0.44783 0.940441,-0.7837 0.850874,-1.16435 -0.08956,-0.38066 -0.492612,-1.3211 -0.671743,-1.5674 -0.179131,-0.24631 -0.649351,-1.14197 -0.47022,-1.56741 0.179131,-0.42543 -2.283926,-1.43305 -2.351101,-1.8137 -0.06718,-0.38066 0.694135,0.29109 0.940441,0.0672 0.246306,-0.22391 -1.209138,-1.41066 -1.209138,-1.41066 0,0 -2.015228,-1.00761 -2.418276,-1.99284 -0.403045,-0.98522 -0.694134,-2.12718 -0.694134,-2.12718 0,0 0.671745,0.85087 0.761309,0.53739 0.08957,-0.31348 -1.500224,-4.03046 -1.343485,-4.20959 0.156739,-0.17913 0.235109,-1.69055 0.235109,-1.69055"
               id="path11662"
               sodipodi:nodetypes="csssssssssssssscsssssssscssssssssssssscscssc" />
          </g>
          <path
             style="fill:#fe7743;fill-opacity:1;stroke:#000000;stroke-width:0.264583;stroke-linecap:round;stroke-linejoin:round;stroke-dasharray:none"
             d="m 50.023433,98.49714 c 0.01582,0.902489 -0.244053,1.61578 0.02511,2.5341 0.269163,0.91832 1.377482,2.99246 1.567479,3.30912 0.189997,0.31667 0.839158,1.59915 0.839158,1.67832 0,0.0792 1.732095,1.32586 1.261874,1.39303 -0.47022,0.0672 -0.268697,0.40305 -0.06717,0.73892 0.201523,0.33587 0.08956,1.14196 -0.60457,1.88088 -0.694134,0.73892 -3.313933,3.24676 -3.313933,3.24676 0,0 5.351555,3.04524 7.254828,4.4559 1.903272,1.41066 -1.119574,2.82132 -2.93328,2.01523 -1.813705,-0.8061 -5.46351,-3.24676 -5.46351,-3.24676 l -2.421578,-2.04006 c -0.570987,-0.58217 -0.91541,-1.55901 -0.624321,-1.88369 0.291088,-0.32467 2.196285,-2.5036 2.196285,-2.5036 v 0 c 0.310499,-0.27114 0.568168,-0.54355 0.509896,-0.6601 -0.05057,-0.10114 -0.21217,-0.30062 -0.394054,-0.51008 -1.132064,-1.20812 -3.111206,-2.6806 -3.982028,-3.93142 -0.870823,-1.25082 -2.187294,-3.78412 -2.187294,-3.78412"
             id="path11666"
             sodipodi:nodetypes="cssscsscssccsccscsc" />
        </g>
        <g
           id="g11678"
           inkscape:label="body"
           style="display:inline;fill:#fe7743;fill-opacity:1;stroke-width:0.264583;stroke-dasharray:none">
          <path
             style="display:inline;fill:#fe7743;fill-opacity:1;stroke:#000000;stroke-width:0.264583;stroke-linecap:round;stroke-linejoin:round;stroke-dasharray:none"
             d="m 74.691282,78.636466 c 1.070416,-1.184036 1.828233,-3.256769 1.905113,-3.897522 0.005,-0.04156 0.0043,-0.101542 0.0043,-0.101542 0,0 -2.086503,0.337701 -2.959062,1.213837 l -1.955453,1.82465"
             id="path11670"
             sodipodi:nodetypes="cscc" />
          <path
             style="fill:#fe7743;fill-opacity:1;stroke:#000000;stroke-width:0.264583;stroke-linecap:round;stroke-linejoin:round;stroke-dasharray:none"
             d="m 49.002337,99.227812 c 1.51135,-1.085342 3.605018,-2.987308 3.438404,-3.190945 -0.201524,-0.246304 0.201523,-0.559787 0.515004,-0.873268 0.313478,-0.313478 1.074788,-0.918048 1.388269,-1.141963 0.313481,-0.223914 0.515003,-0.223914 0.515003,-0.223914 l 6.131687,-2.170403 c 1.075187,-0.301792 1.613514,-0.903452 1.993509,-0.998451 0.379997,-0.095 1.076655,-0.06333 1.45665,-0.095 0.379994,-0.03167 0.60166,-0.316662 0.60166,-0.316662 0,0 -0.379998,-0.538329 -0.158332,-0.569994 0.221662,-0.03167 1.583311,-0.569992 1.709978,-0.791657 0.126664,-0.221663 0.411663,-0.981655 0.411663,-0.981655 0,0 1.361649,-0.348329 1.551646,-0.443327 0.189997,-0.095 1.361649,-0.728324 1.519981,-0.791658 0.158332,-0.06333 0.633325,-0.06333 0.633325,-0.06333 0,0 2.216639,1.203317 4.179948,1.203317 1.963309,0 4.686607,-0.949987 4.686607,-0.949987 0,0 0.696659,-0.85499 0.633325,-1.234985 -0.06333,-0.379997 -0.348326,-0.569994 -0.601657,-0.664993 -0.253331,-0.095 -1.488316,-0.696658 -1.488316,-0.696658 0,0 -2.406636,-1.963309 -2.46997,-2.121639 -0.06333,-0.158331 -0.284996,-2.659967 -0.569991,-3.071629 -0.284996,-0.41166 -2.0164,-1.729531 -2.0164,-1.729531 l -5.363626,-0.210128 c 0,0 -1.422056,0.106318 -1.791515,0.363818 -0.369459,0.257501 -0.839679,0.710928 -0.890058,0.755711 -0.05038,0.04478 -1.136367,0.44223 -1.136367,0.44223 0,0 -3.748513,0.821229 -5.901822,0.156239 -2.153306,-0.664993 -0.379995,0.41166 -0.633325,0.474993 -0.253331,0.06333 -1.773312,-0.126664 -1.773312,0.095 0,0.221665 0.221665,0.538326 0.06333,0.633325 -0.158332,0.095 -2.343303,-0.126664 -2.248304,0.189997 0.095,0.316664 0.696658,0.284999 0.474993,0.569995 -0.221663,0.284996 -3.388291,0.110831 -3.625787,0.269163 -0.237498,0.158332 0.633325,0.60166 0.506659,0.744157 -0.126664,0.142499 -2.849965,0.25333 -2.913295,0.554159 -0.06333,0.300831 0.332493,0.538326 0.07917,0.759992 -0.253331,0.221662 -0.237498,0.316661 -0.981655,0.474993 -0.744159,0.158332 -0.728326,0.25333 -0.870823,0.554159 -0.142499,0.300831 -3.847452,2.184974 -5.684097,5.319935 -1.836642,3.13496 -1.773311,2.849964 -1.709978,2.438302 0.06333,-0.41166 -0.569992,0.791657 -0.85499,1.646647 -0.284996,0.854988 -1.361649,4.591609 -1.329981,6.301587 0.03167,1.709976 1.044985,5.446596 1.456647,6.269926 0.411663,0.82332 2.16527,4.46285 2.703596,5.22284 0.538327,0.76 1.14926,1.76563 1.085929,1.95563 -0.06333,0.19 -2.392861,4.69429 -2.392861,4.69429 0,0 -1.599146,2.7708 -1.377484,3.21412 0.221666,0.44333 2.292624,5.63933 2.609285,5.86099 0.316664,0.22166 0.981489,1.56685 1.83648,1.72518 0.85499,0.15833 2.216639,0.18999 1.393317,-1.70998 -0.823326,-1.89998 -2.723301,-5.22494 -2.754966,-5.41493 -0.03167,-0.19 -0.664994,-0.63333 0.791657,-2.05831 1.456647,-1.42498 4.908269,-5.98493 5.256599,-6.17493 0.348329,-0.19 0.379995,-2.02664 0.474995,-2.5333 0.08322,-0.44386 1.134561,-9.09328 1.439596,-11.667468 0,0 0.012,-0.167703 0.01985,-0.273676 0.06333,-0.85499 -0.92112,-1.707016 -0.92112,-1.707016"
             id="path11672"
             sodipodi:nodetypes="csssccsscsscsscscsscssccsscssssssssssssssssssscssssssssssc" />
          <path
             style="fill:#fe7743;fill-opacity:1;fill-rule:evenodd;stroke:#000000;stroke-width:0.264583;stroke-linecap:round;stroke-linejoin:round;stroke-dasharray:none;stroke-opacity:1"
             d="m 66.316518,78.595685 c 0.518337,-1.394447 5.213358,-5.128835 7.782557,-5.604928 0.365953,2.304647 -1.996895,5.935366 -1.996895,5.935366"
             id="path11674"
             sodipodi:nodetypes="ccc" />
          <path
             style="fill:#fe7743;fill-opacity:1;fill-rule:evenodd;stroke:#000000;stroke-width:0.264583;stroke-linecap:round;stroke-linejoin:round;stroke-dasharray:none;stroke-opacity:1"
             d="m 74.099075,72.990757 c -0.901475,0.934566 -3.523897,3.13948 -3.678012,4.617956 -0.09093,0.872313 -0.08177,1.287506 -0.08177,1.287506"
             id="path11676"
             sodipodi:nodetypes="csc" />
        </g>
        <g
           id="g11682"
           inkscape:label="leg3"
           style="display:inline;fill:#fe7743;fill-opacity:1;stroke-width:0.264583;stroke-dasharray:none">
          <path
             style="fill:#fe7743;fill-opacity:1;stroke:#000000;stroke-width:0.264583;stroke-linecap:round;stroke-linejoin:round;stroke-dasharray:none"
             d="m 57.769902,95.633819 c -0.33587,0.918049 -1.27631,3.000452 -1.545008,3.73937 -0.268697,0.738921 1.276311,3.716981 2.686971,1.186741 0.901525,-1.669704 1.978966,-3.15039 2.603002,-4.875729 l 0.804355,-2.941608 c 0.08708,-0.217707 0.225623,-0.443328 0.150416,-0.613534 -0.07521,-0.170207 -0.30479,-0.312706 -0.407705,-0.336455 -0.102915,-0.02376 -1.112276,0 -1.112276,0 -0.634299,0.07376 -2.127357,0.269782 -2.127357,0.269782"
             id="path11680"
             sodipodi:nodetypes="cscccssc" />
        </g>
        <g
           id="g11686"
           inkscape:label="leg2"
           style="display:inline;fill:#fe7743;fill-opacity:1;stroke-width:0.264583;stroke-dasharray:none">
          <path
             style="fill:#fe7743;fill-opacity:1;stroke:#000000;stroke-width:0.264583;stroke-dasharray:none"
             d="m 56.270963,86.005592 c 0,0 -1.614979,1.994977 -1.551646,3.863287 0.06333,1.86831 0.126664,5.003271 0.506661,5.383266 0.379995,0.379994 2.913296,0.316661 2.913296,0.316661 l 4.686609,0.158332 c 0,0 -1.899978,4.179948 -1.899978,4.654942 0,0.475 0.85499,2.69163 2.279973,0.88666 1.424982,-1.804982 2.976628,-5.414936 3.008296,-6.016595 0.03167,-0.60166 -0.25333,-1.61498 -1.393317,-1.994975 -1.139986,-0.379997 -4.306612,-0.696658 -4.306612,-0.696658 0,0 2.469968,-4.654942 2.501635,-6.301589"
             id="path11684" />
        </g>
      </g>
    </g>
  </g>
</svg>
