<?xml version="1.0" encoding="UTF-8" standalone="no"?>
<!-- Created with Inkscape (http://www.inkscape.org/) -->

<svg
   width="42.148026mm"
   height="54.27179mm"
   viewBox="0 0 42.148026 54.27179"
   version="1.1"
   id="svg930"
   inkscape:version="1.2.1 (9c6d41e410, 2022-07-14)"
   sodipodi:docname="pages_vertical.svg"
   xmlns:inkscape="http://www.inkscape.org/namespaces/inkscape"
   xmlns:sodipodi="http://sodipodi.sourceforge.net/DTD/sodipodi-0.dtd"
   xmlns="http://www.w3.org/2000/svg"
   xmlns:svg="http://www.w3.org/2000/svg">
  <sodipodi:namedview
     id="namedview932"
     pagecolor="#ffffff"
     bordercolor="#000000"
     borderopacity="0.25"
     inkscape:showpageshadow="2"
     inkscape:pageopacity="0.0"
     inkscape:pagecheckerboard="0"
     inkscape:deskcolor="#d1d1d1"
     inkscape:document-units="mm"
     showgrid="false"
     inkscape:zoom="0.35355339"
     inkscape:cx="608.11183"
     inkscape:cy="749.53319"
     inkscape:window-width="1920"
     inkscape:window-height="1009"
     inkscape:window-x="-8"
     inkscape:window-y="-8"
     inkscape:window-maximized="1"
     inkscape:current-layer="layer3"
     showguides="false">
    <sodipodi:guide
       position="-24.522297,236.9418"
       orientation="-1,0"
       id="guide4764"
       inkscape:locked="false"
       inkscape:label=""
       inkscape:color="rgb(119,118,123)" />
    <sodipodi:guide
       position="-129.5223,93.4418"
       orientation="0,1"
       id="guide4766"
       inkscape:locked="false"
       inkscape:label=""
       inkscape:color="rgb(119,118,123)" />
    <sodipodi:guide
       position="120.47771,236.9418"
       orientation="-1,0"
       id="guide4912"
       inkscape:locked="false"
       inkscape:label=""
       inkscape:color="rgb(0,134,229)" />
    <sodipodi:guide
       position="-129.5223,236.9418"
       orientation="0,1"
       id="guide4914"
       inkscape:locked="false"
       inkscape:label=""
       inkscape:color="rgb(0,134,229)" />
    <sodipodi:guide
       position="225.47771,236.9418"
       orientation="-1,0"
       id="guide4971"
       inkscape:locked="false"
       inkscape:label=""
       inkscape:color="rgb(119,118,123)" />
    <sodipodi:guide
       position="-129.5223,236.9418"
       orientation="0,1"
       id="guide4973"
       inkscape:locked="false"
       inkscape:label=""
       inkscape:color="rgb(0,134,229)" />
    <sodipodi:guide
       position="-129.5223,236.9418"
       orientation="-1,0"
       id="guide4975"
       inkscape:locked="false"
       inkscape:label=""
       inkscape:color="rgb(0,134,229)" />
    <sodipodi:guide
       position="-129.5223,-60.058204"
       orientation="0,1"
       id="guide4977"
       inkscape:locked="false"
       inkscape:label=""
       inkscape:color="rgb(0,134,229)" />
    <sodipodi:guide
       position="80.477706,236.9418"
       orientation="-1,0"
       id="guide4979"
       inkscape:locked="false"
       inkscape:label=""
       inkscape:color="rgb(0,134,229)" />
    <sodipodi:guide
       position="330.47771,236.9418"
       orientation="-1,0"
       id="guide4981"
       inkscape:locked="false"
       inkscape:label=""
       inkscape:color="rgb(0,134,229)" />
    <sodipodi:guide
       position="49.727705,236.9418"
       orientation="-1,0"
       id="guide4983"
       inkscape:locked="false"
       inkscape:label=""
       inkscape:color="rgb(119,118,123)" />
    <sodipodi:guide
       position="-61.647298,236.9418"
       orientation="-1,0"
       id="guide4985"
       inkscape:locked="false"
       inkscape:label=""
       inkscape:color="rgb(0,134,229)" />
    <sodipodi:guide
       position="151.22771,236.9418"
       orientation="-1,0"
       id="guide4987"
       inkscape:locked="false"
       inkscape:label=""
       inkscape:color="rgb(119,118,123)" />
    <sodipodi:guide
       position="299.72771,236.9418"
       orientation="-1,0"
       id="guide4989"
       inkscape:locked="false"
       inkscape:label=""
       inkscape:color="rgb(119,118,123)" />
    <sodipodi:guide
       position="-129.5223,-21.558203"
       orientation="0,1"
       id="guide4991"
       inkscape:locked="false"
       inkscape:label=""
       inkscape:color="rgb(119,118,123)" />
    <sodipodi:guide
       position="-129.5223,198.4418"
       orientation="0,1"
       id="guide4993"
       inkscape:locked="false"
       inkscape:label=""
       inkscape:color="rgb(119,118,123)" />
    <sodipodi:guide
       position="-129.5223,83.4418"
       orientation="0,1"
       id="guide1602"
       inkscape:locked="false"
       inkscape:label=""
       inkscape:color="rgb(119,118,123)" />
    <sodipodi:guide
       position="-98.772299,236.9418"
       orientation="-1,0"
       id="guide4199"
       inkscape:locked="false"
       inkscape:label=""
       inkscape:color="rgb(119,118,123)" />
    <sodipodi:guide
       position="12.602704,236.9418"
       orientation="-1,0"
       id="guide4203"
       inkscape:locked="false"
       inkscape:label=""
       inkscape:color="rgb(0,134,229)" />
    <sodipodi:guide
       position="262.60271,236.9418"
       orientation="-1,0"
       id="guide4205"
       inkscape:locked="false"
       inkscape:label=""
       inkscape:color="rgb(0,134,229)" />
    <sodipodi:guide
       position="-129.5223,145.9418"
       orientation="0,1"
       id="guide6391"
       inkscape:locked="false"
       inkscape:label=""
       inkscape:color="rgb(0,134,229)" />
    <sodipodi:guide
       position="-129.5223,30.941798"
       orientation="0,1"
       id="guide8573"
       inkscape:locked="false"
       inkscape:label=""
       inkscape:color="rgb(0,134,229)" />
    <sodipodi:guide
       position="188.35271,236.9418"
       orientation="-1,0"
       id="guide8575"
       inkscape:locked="false"
       inkscape:label=""
       inkscape:color="rgb(0,134,229)" />
  </sodipodi:namedview>
  <defs
     id="defs927" />
  <g
     inkscape:groupmode="layer"
     id="layer2"
     inkscape:label=" page 1"
     style="display:inline"
     transform="translate(-129.5223,-182.67001)">
    <g
       id="g11702"
       transform="matrix(0.89560879,0,0,0.89560879,82.7962,107.58704)"
       style="display:inline"
       inkscape:label="circle R">
      <g
         id="g11660"
         inkscape:label="raven"
         inkscape:export-filename="circle.png"
         inkscape:export-xdpi="750.52924"
         inkscape:export-ydpi="750.52924"
         style="display:inline;fill:#273f4f;fill-opacity:1">
        <g
           id="g11638"
           inkscape:label="wing2"
           style="fill:#273f4f;fill-opacity:1;stroke-width:0.264583;stroke-dasharray:none">
          <path
             style="fill:#273f4f;fill-opacity:1;stroke:#000000;stroke-width:0.264583;stroke-linecap:round;stroke-linejoin:round;stroke-dasharray:none"
             d="m 71.914102,126.15842 c 0,0 -2.311642,-7.91656 -2.231962,-11.78297 0.179133,-2.00404 -0.372384,-3.36334 -0.660548,-3.01165 -0.288163,0.35169 -0.30228,1.22033 -0.39185,1.95925 l -0.08956,1.76893 c 0,0 0.06717,-0.85088 0.06717,-1.29871 0,-0.44783 -0.01336,-1.89318 -0.08956,-2.47425 -0.08956,-0.68294 -0.559786,-1.95925 -0.7837,-1.84729 -0.223915,0.11196 -0.403047,0.92923 -0.515004,1.71294 -0.09822,0.68752 -0.04478,0.94044 -0.425438,2.57502 l -0.223915,2.25033 c 0,0 0.111958,-0.38065 0.246306,-2.48545 0.13435,-2.10479 -0.08956,-2.61979 -0.223915,-3.98567 -0.134347,-1.36588 -0.559784,-3.69459 -0.962832,-5.08286 -0.403045,-1.38827 -1.500227,-2.48544 -1.545007,-1.83609 -0.04478,0.64935 0.253992,2.39452 0.335872,3.09001 0.07872,0.66862 0.410907,5.16183 0.100759,7.19885 -0.906853,5.95612 -3.235561,12.06898 -3.44828,12.66236 -0.212717,0.59337 -0.660546,1.24272 -0.873266,1.52262 -0.212719,0.27989 -0.134359,1.94805 -0.156739,2.21675 -0.02239,0.26869 2.407079,2.16077 2.810124,2.74295 0.403048,0.58217 3.873719,2.68697 5.911339,3.69458 l 3.340004,2.28469"
             id="path11636"
             sodipodi:nodetypes="cssssssssssccsssscczc" />
        </g>
        <g
           id="g11644"
           inkscape:label="leg2"
           style="fill:#273f4f;fill-opacity:1;stroke-width:0.264583;stroke-dasharray:none">
          <path
             style="fill:#273f4f;fill-opacity:1;stroke:#000000;stroke-width:0.264583;stroke-linecap:round;stroke-linejoin:round;stroke-dasharray:none"
             d="m 91.135527,131.55752 c 0.934156,-0.68082 1.298318,-0.93415 1.424982,-1.23498 0.126667,-0.30083 0.886656,-2.01081 0.886656,-2.01081 l 0.221806,-0.49582 c 0.03918,-0.16794 0.123152,-0.87887 0.123152,-0.94044 l 0.03359,-0.35267 c 0.09284,-0.93967 0.22259,-1.69218 0.02258,-2.264 -0.200013,-0.57181 -0.817471,-1.06113 -0.817471,-1.06113 0,0 0.431035,1.22593 0.386252,1.71295 -0.04478,0.48701 -0.279892,0.82288 -0.279892,0.82288 0,0 0.128749,-0.91804 -0.100761,-1.545 -0.229513,-0.62697 -0.539972,-0.79418 -0.873268,-0.99642 -0.333296,-0.20224 -0.985222,-0.24071 -0.985222,-0.24071 0,0 0.335871,0.21832 0.817287,0.69414 0.492606,0.60457 0.397447,0.82288 0.447827,1.5506 0.04095,0.59156 -0.123152,1.09718 -0.123152,1.09718 0,0 -0.375166,-0.80898 -0.817287,-1.25952 -0.442121,-0.45054 -1.388308,-0.77532 -1.831635,-0.88615 -0.443328,-0.1108 -0.569993,-0.1425 -0.569993,-0.1425 0.438794,0.37598 1.047407,0.7627 1.474191,1.1657 0.38667,0.36511 0.613699,0.74931 0.714941,1.00741 0.137026,0.34931 0.275565,0.68251 0.288755,0.83518 0.01707,0.19765 0.09499,0.63333 0.06333,1.02916 -0.03167,0.39583 -0.0475,0.71249 -0.300831,1.64664 0,0 -0.07945,0.1 -0.791655,0.60166"
             id="path11640"
             sodipodi:nodetypes="cscccczcscszccsssscszcscc" />
          <path
             style="fill:#273f4f;fill-opacity:1;stroke:#000000;stroke-width:0.264583;stroke-linecap:round;stroke-linejoin:round;stroke-dasharray:none"
             d="m 85.000189,134.13041 0.973737,-1.27457 1.93956,-1.55956 1.939556,-0.75208 c 0,0 0.427494,-0.20583 0.522494,-0.25333 0.095,-0.0475 0.269163,0.0158 0.45916,0.12667 0.190001,0.11083 0,0.42749 -0.06333,0.60166 -0.06333,0.17416 -0.15833,0.26916 -0.095,0.49082 0.06333,0.22163 0.395824,-0.18999 0.474994,0.15833 0.07917,0.34833 -0.284996,0.30083 -0.459161,0.63333 -0.174165,0.3325 -0.538326,0.91832 -1.504148,1.77331 l -0.482909,0.63333"
             id="path11642" />
        </g>
        <g
           id="g11648"
           inkscape:label="leg1"
           style="fill:#273f4f;fill-opacity:1;stroke-width:0.264583;stroke-dasharray:none">
          <path
             style="fill:#273f4f;fill-opacity:1;stroke:#000000;stroke-width:0.264583;stroke-linecap:round;stroke-linejoin:round;stroke-dasharray:none"
             d="m 89.53638,134.09082 c 3.372458,-0.25333 2.802467,-0.23749 2.802467,-0.23749 0.807489,-1.44082 1.171651,-2.43831 1.314148,-2.58081 0.142499,-0.14249 0.348329,-0.26916 0.348329,-0.75998 0,-0.49083 0.348329,-1.69415 -1.246859,-3.07163 1.436857,0.45916 1.943518,1.64664 1.991018,2.06622 0.0475,0.41958 0.07125,0.91832 0.07125,0.91832 l -0.07124,-1.02123 c 0,0 0.189985,-0.94208 0.01582,-1.54374 -0.174165,-0.60165 -0.538326,-0.75998 -1.306235,-1.32206 1.694148,0.15833 1.971227,1.1479 2.018727,1.30623 0.0475,0.15833 0.395827,1.66248 0.395827,1.66248 0,0 0.08708,-0.24541 0.134582,-0.72041 0.0475,-0.47499 -0.25333,-1.13998 -0.562078,-1.32206 0.775826,0.15833 1.013323,0.52249 1.02124,1.70998 0.0079,1.18748 -0.372079,2.0583 -0.372079,2.0583 0,0 -0.53041,1.29041 -0.641242,1.34582 -0.110832,0.0554 -0.174164,0.46708 -0.174164,0.60166 0,0.13458 -0.649159,1.51998 -1.496232,1.74956 -0.847072,0.22958 -2.659966,0.72041 -3.111211,0.71249 -0.451244,-0.008 -0.680825,-0.0475 -0.680825,-0.0475"
             id="path11646"
             sodipodi:nodetypes="ccsscsccscscscscssscc" />
        </g>
        <g
           id="g11652"
           inkscape:label="body"
           style="display:inline;fill:#273f4f;fill-opacity:1;stroke-width:0.264583;stroke-dasharray:none">
          <path
             style="fill:#273f4f;fill-opacity:1;stroke:#000000;stroke-width:0.264583;stroke-linecap:round;stroke-linejoin:round;stroke-dasharray:none"
             d="m 95.410474,118.03602 c 0.633325,-1.06082 2.533301,-5.38326 2.88163,-6.85574 0.348329,-1.47248 1.044988,-12.872343 0.728324,-12.904009 -0.316662,-0.03166 -0.522492,2.770799 -0.664991,2.343299 -0.142499,-0.42749 -0.126664,-3.245787 -0.427495,-4.433272 -0.300829,-1.187487 -2.913295,-8.138231 -4.037449,-9.389049 -1.124154,-1.250817 -1.282483,-1.994977 -1.899976,-2.105808 -0.617492,-0.110831 -0.601659,0.237498 -0.284996,1.01332 0.316662,0.775824 1.884143,5.066604 2.105806,5.969092 0.221665,0.902489 1.124154,3.356626 1.124154,3.356626 l -0.813085,-2.240372 c -2.004034,-3.336325 -2.440666,-3.985675 -3.784152,-5.597861 -1.343485,-1.612182 -1.444247,-1.72414 -2.451863,-2.463055 -1.007615,-0.738918 -1.466637,-0.94044 -1.64577,-0.60457 -0.179131,0.335872 0.31348,1.746532 1.231529,2.754145 0.918048,1.007615 2.444916,2.95548 3.560237,4.523071 0.905499,1.272685 1.444249,2.261535 1.533816,2.530233 l -0.671745,-1.197943 c -1.130768,-1.500226 -3.996869,-4.366329 -4.623831,-4.948507 -0.62696,-0.582176 -1.634575,-1.545008 -2.395884,-1.970445 -0.761307,-0.425439 -1.365878,0.156739 -1.052397,0.671743 0.313481,0.515003 1.433053,1.970445 2.194362,2.754146 0.761307,0.783701 2.630992,3.034039 3.437084,4.131219 0.806091,1.097182 1.522617,2.48545 1.948056,3.358716 -0.980016,-1.912452 -2.181013,-3.857641 -3.963285,-5.888946 -2.295122,-2.093601 -4.567852,-4.108831 -4.881333,-3.907308 -0.313481,0.201522 -0.05598,1.522619 0.391854,2.328709 0.447829,0.806093 3.716978,3.940892 4.612635,5.351553 0.895657,1.41066 2.071208,2.910889 2.227948,3.134803 l -1.515709,-2.006397 c -1.379133,-1.472676 -4.188971,-3.528787 -4.485199,-3.423526 -0.710858,0.252594 -0.18354,1.687482 0.369458,2.283924 0.646072,0.69683 2.469423,2.545737 3.566605,3.486177 l 2.027221,1.755332 c 0,0 -4.252919,-3.652044 -5.070207,-4.200636 -0.676741,-0.454252 -0.944798,-0.574232 -1.142757,-0.334281 -0.738918,0.895659 0.518964,1.628044 1.631665,2.694193 0.967816,0.927325 4.052986,2.768524 4.791904,4.313534 l -0.616255,-0.89107 c 0,0 -3.574912,-2.587354 -4.382402,-3.268179 -0.807489,-0.680824 -1.49169,-0.341774 -1.618357,-0.262604 -0.126664,0.07917 0.07917,0.85499 0.601659,1.47248 0.522494,0.617492 4.5069,3.683573 5.694385,5.963543 l -1.356105,-1.87859 c -0.997488,-0.855 -1.329984,-1.23499 -2.438304,-2.24831 -0.512293,-0.46838 -1.029153,-0.88666 -1.662478,-1.250816 -0.56293,-0.32368 -0.870837,-0.110832 -0.886657,0.300826 -0.01583,0.41166 0.60166,0.74416 0.902489,1.32998 0.300831,0.58583 3.087461,3.67329 3.799952,4.82911 0.712491,1.15582 0.664994,4.95578 0.909157,6.52557 0.141015,0.78603 -0.01573,1.79364 -0.06051,0.96516 -0.04478,-0.82848 -0.447831,-1.54501 -0.515001,-1.07479 -0.06717,0.47022 -1.141963,7.61309 -1.41066,8.01613 -0.268698,0.40305 -0.179134,-0.42543 -0.447829,-0.58217 -0.268697,-0.15674 -3.058817,3.29584 -4.469478,4.30346 l -11.672875,9.64211 c 0,0 -1.095068,1.08417 -1.680893,1.7175 -0.585827,0.63332 -1.409149,0.75999 -2.441003,0.93536 0,0 -0.429745,-0.59848 -1.056705,-0.93435 -0.626962,-0.33588 -1.14173,-0.55075 -1.477601,-0.6851 -0.335872,-0.13431 -1.003541,-0.22301 -1.406586,-0.22301 -0.403045,0 0.895657,-0.2239 0.358262,-0.2463 -0.537393,-0.0224 -1.545008,0.13434 -2.440665,0.38065 -0.89566,0.24631 0.80609,-0.67174 0.156739,-0.515 -0.649351,0.15674 -2.015228,0.94044 -2.015228,0.94044 0,0 0.04478,-0.3135 -0.492612,-0.0672 -0.537395,0.24631 -1.198864,1.34349 -1.198864,1.34349 0,0 0.191249,-0.76131 0,-0.58218 -0.191246,0.17913 -1.129845,1.85849 -1.129845,1.85849 l -1.500227,0.40305 c 0,0 -1.477835,0.0896 -1.679358,2.03762 -0.201523,1.94805 0.918049,2.37349 0.918049,2.37349 0,0 -0.06717,-1.03 0.111958,-1.27631 0.179131,-0.24631 1.253919,-0.35826 1.253919,-0.35826 l 1.903272,-0.22392 c 1.388269,1.48903 3.381108,2.38469 3.313933,2.12719 -0.06718,-0.2575 -0.54859,-0.85088 -0.257501,-0.71653 0.291087,0.13435 4.814157,1.19794 6.403949,0.90686 1.589794,-0.29109 3.182773,0.20455 4.053596,0.52913 0.870823,0.32458 2.434344,0.39187 2.553094,0.35624 0.118748,-0.0356 -0.376039,-0.24541 -0.205832,-0.24937 0.170206,-0.004 1.191445,0.0198 1.203319,-0.0475 0.01188,-0.0673 -0.122708,-0.1425 -0.04354,-0.15437 0.07917,-0.0119 0.874781,0.0475 0.914363,-0.008 0.03958,-0.0554 0.07917,-0.51062 0.209791,-0.56604 0.130622,-0.0554 5.858258,-1.29832 6.103672,-1.71789 0.245415,-0.41958 -0.300828,-0.35625 -0.300828,-0.35625 0.917674,-0.43934 1.734961,-0.48412 1.902897,-0.5401 0.167936,-0.056 0.128751,-0.20712 0.296687,-0.41424 0.167935,-0.20712 1.214735,-1.03561 1.595389,-1.16436 0.380655,-0.12875 1.914468,0.0112 1.981642,-0.15674 0.06718,-0.16793 -0.291088,-0.44783 -0.425437,-0.44783 -0.134348,0 -0.403046,-0.0896 0.123153,-0.27989 0.526199,-0.19033 0.974027,-0.2687 0.929245,-0.44783 -0.04478,-0.17913 -1.253921,-0.19032 -1.052398,-0.32467 0.201523,-0.13435 1.645771,-0.71653 1.813706,-0.82849 0.167936,-0.11195 1.477835,-0.30228 1.645771,-0.44782 0.167936,-0.14555 -0.62696,0.0224 -0.403046,-0.12316 0.223914,-0.14554 1.119572,-0.41424 1.220333,-0.48141 0.100762,-0.0672 -0.721805,-0.34413 -0.539724,-0.4233 0.182081,-0.0792 0.451244,-0.21374 0.514577,-0.36416 0.06333,-0.15041 0.150415,-0.26916 -0.095,-0.39583 -0.245413,-0.12666 -0.364162,-0.37208 -0.934155,-0.29291 -0.569993,0.0792 -1.361649,0.34833 -1.068736,0.11875 0.292913,-0.22958 1.899976,-3.39621 2.564967,-4.94786 0.664992,-1.55164 1.266651,-5.47826 1.836644,-6.71325 0.569993,-1.23498 2.406637,-3.57829 3.039962,-4.46494"
             id="path11650"
             sodipodi:nodetypes="cssssssssccsssssccsssssccsssccssccsssccsssccssssscssssccscsssssscscsccscsccssssscsscsscssssscsssssssssssssc" />
        </g>
        <g
           id="g11656"
           inkscape:label="wing1"
           style="fill:#273f4f;fill-opacity:1;stroke-width:0.264583;stroke-dasharray:none">
          <path
             style="fill:#273f4f;fill-opacity:1;stroke:#000000;stroke-width:0.264583;stroke-linecap:round;stroke-linejoin:round;stroke-dasharray:none"
             d="m 70.723346,136.3766 c -0.05598,-0.9532 0.03359,-1.72571 -1.130765,-3.60659 -1.164355,-1.88088 -2.77654,-3.67219 -2.77654,-3.67219 0,0 -1.551856,-2.19524 -1.456857,-2.7019 0.095,-0.50666 1.485096,-4.95577 1.963309,-5.93743 0.47821,-0.98165 1.884143,-4.16411 2.058307,-4.74994 0.174165,-0.58582 1.804977,-9.21488 1.551647,-12.50817 -0.253331,-3.293297 -0.451246,-6.201142 -0.411663,-6.702612 0.201661,-1.249248 0.979319,0.47454 1.108321,0.90768 0.284996,1.191657 0.823323,4.686612 1.076653,6.079922 0.253331,1.39332 -0.474993,11.0832 -0.474993,11.0832 l 0.490826,-8.47865 c -0.0097,-1.38314 0.124238,-1.64991 0.191715,-2.16162 0.0709,-0.53767 0.135941,-1.54229 0.382241,-2.01251 0.08377,-0.15992 0.929243,0.8792 1.164355,3.1348 0.235108,2.25559 0.25263,4.76167 0.25263,4.76167 0,0 0.298772,1.36121 0.209207,4.04819 -0.08957,2.68697 -0.17913,3.04523 -0.17913,3.04523 l 0.181022,-4.68065 c 0.311591,-2.11515 0.468331,-3.34668 0.5467,-3.70494 0.07837,-0.35826 0.134348,-0.77251 0.268698,-1.35468 0.134347,-0.58218 0.291089,-1.01881 0.291089,-1.01881 0,0 0.671743,-1.11958 0.929243,2.38469 0.257503,3.50425 0.03359,3.69458 0.111959,4.20959 0.07837,0.515 0.08956,1.84729 0.08956,1.91446 0,0.0672 -0.100762,2.89969 -0.100762,2.89969 l -0.07942,2.01681 0.18018,-4.9165 c 0.2799,-1.88115 0.447834,-3.89611 0.503815,-4.38872 0.05598,-0.49261 0.06717,-1.09718 0.145544,-1.51142 0.07837,-0.41424 0.145542,-0.44783 0.212717,-0.68294 0.06718,-0.23511 0.459026,-1.58979 0.638157,0.7837 0.179131,2.37349 0.100761,2.20556 0.06717,3.81774 -0.03359,1.61218 -0.01119,5.51949 -0.111959,5.97851 l 0.08307,-2.7764 c 0.319985,-3.10162 0.769467,-5.09307 1.070099,-5.98984 0.267715,-0.79858 0.906853,0.30228 0.794897,2.45186 -0.111958,2.14958 -0.906532,5.35047 -0.972342,6.04184 -0.06607,0.69414 -0.06607,1.12277 -0.06607,2.00724 l 0.03506,-1.85474 c 0.26923,-1.72415 0.916034,-2.9808 1.139948,-3.75527 0.223915,-0.77447 0.255699,-0.91221 0.714274,-1.45385 0.38444,-0.45407 0.368896,0.66509 0.324116,1.82945 -0.04478,1.16435 -0.31887,3.37302 -0.470784,4.628 l -0.791697,3.37239 c 0.892704,-3.69377 1.074234,-4.7821 1.510106,-6.15841 0.435872,-1.37631 0.547829,-1.49946 0.86131,-2.12642 0.313481,-0.62696 0.537395,2.1048 0.268697,3.17958 -0.268697,1.07479 -0.94044,4.92612 -1.07479,5.86656 -0.134348,0.94044 -0.358262,2.73175 -0.537393,3.4035 -0.17913,0.67174 0.313479,-1.38827 0.537393,-0.67175 0.223917,0.71653 0.403048,0.89566 0.08957,2.1048 -0.313481,1.20914 -0.76131,2.46306 -0.76131,2.46306"
             id="path11654"
             sodipodi:nodetypes="cscssssccsccssscsccsscssscccsssssccsssccsssccsssssssc" />
        </g>
        <path
           style="fill:#273f4f;fill-opacity:1;fill-rule:evenodd;stroke:#000000;stroke-width:0.264583;stroke-linecap:round;stroke-linejoin:round;stroke-dasharray:none;stroke-opacity:1"
           d="m 56.515981,141.08843 c 0.106365,-0.71984 -0.471892,-2.64244 -1.007613,-2.95567"
           id="path11658"
           inkscape:export-filename="circle.pdf"
           inkscape:export-xdpi="750.52924"
           inkscape:export-ydpi="750.52924" />
      </g>
    </g>
  </g>
</svg>
